<svg height="192pt" preserveAspectRatio="xMidYMid meet" viewBox="0 0 192 192" width="192pt" xmlns="http://www.w3.org/2000/svg"><g transform="matrix(.1 0 0 -.1 0 192)"><path d="m663 1816c-142-67-236-246-213-407 13-85 12-99-3-99-27 0-4-204 30-270 7-14 13-30 13-37 0-26 33-110 55-139 13-17 27-47 30-68 6-31 4-40-13-52-12-8-37-43-57-78s-41-69-48-74-112-61-234-122l-223-113v-179-178h825c504 1 825 5 825 11 0 5 5 9 11 9 5 0 7-5 4-10-4-6 25-10 80-10 66 0 85 3 79 12-6 10-4 11 7 1 7-7 24-13 37-13 22 0 23 2 17 42-4 24-16 62-26 85-11 23-19 46-19 51s-7 15-15 22-12 16-9 21 1 9-5 9c-8 0-22 53-26 95 0 6-9 9-18 9-17-2-17-1-2 16 23 26 11 41-28 33-25-4-30-3-20 7 18 20-43 68-67 52-14-9-17-8-16 6 1 11-25 28-88 54-83 36-90 38-112 23-17-11-22-12-18-2 5 15-68 57-107 61-42 5-65 24-77 65-8 25-28 53-55 76l-42 36-5-48c-4-40-8-48-25-48-16 0-20 7-20 30 0 17-5 38-11 49-9 15-14 16-33 6-31-16-35-8-11 20 56 64 80 133 81 226 1 31 11 87 24 125 12 37 18 66 12 62-7-4-7 2-2 18 4 13 8 38 9 54 1 27-2 30-27 27-15-2-34 1-43 6-13 7-12 12 6 34 11 14 20 37 20 51 0 39-32 102-81 158-56 65-89 125-89 165 0 18-8 38-20 49-12 10-18 25-16 32 4 10-1 12-19 7-19-5-25-2-25 11 0 14 6 16 30 11 19-3 29-2 25 4-3 6-17 10-30 10s-27 5-30 10c-3 6-36 10-73 10-50 0-80-6-119-24zm47-570c0-3-4-8-10-11-5-3-10-1-10 4 0 6 5 11 10 11 6 0 10-2 10-4zm260-176c0-5-4-10-10-10-5 0-10 5-10 10 0 6 5 10 10 10 6 0 10-4 10-10zm-90-21c0-5-7-9-15-9-15 0-20 12-9 23 8 8 24-1 24-14zm-37-156c-7-2-19-2-25 0-7 3-2 5 12 5s19-2 13-5zm70-30c8-7-11-33-23-33-5 0-6 9-3 20 5 20 15 25 26 13zm367-323c0-11 5-20 10-20 12 0 13-27 2-34-5-3-13 13-19 35-5 21-6 39-2 39 5 0 9-9 9-20zm210-40c0-5-5-10-11-10-5 0-7 5-4 10 3 6 8 10 11 10 2 0 4-4 4-10zm-174-27c-10-10-19 5-10 18 6 11 8 11 12 0 2-7 1-15-2-18zm25-16c-8-8-11-7-11 4 0 20 13 34 18 19 3-7-1-17-7-23zm55 0c8 3 14 0 14-6s-11-11-25-11-25 6-25 13c0 20 15 31 18 13 2-8 9-13 18-9zm51-23c-3-3-12-4-19-1-8 3-5 6 6 6 11 1 17-2 13-5z"/><path d="m1100 1621c0-5 5-13 10-16 6-3 10-2 10 4 0 5-4 13-10 16-5 3-10 2-10-4z"/><path d="m1121 1574c0-11 3-14 6-6 3 7 2 16-1 19-3 4-6-2-5-13z"/><path d="m1138 1523c5-21 7-23 10-9 2 10 0 22-6 28s-7 0-4-19z"/><path d="m1151 1474c0-11 3-14 6-6 3 7 2 16-1 19-3 4-6-2-5-13z"/><path d="m1175 1351c-3-5-1-12 5-16 5-3 10 1 10 9 0 18-6 21-15 7z"/></g></svg>